<?xml version="1.0" standalone="no"?>
<!DOCTYPE svg PUBLIC "-//W3C//DTD SVG 1.1//EN" "http://www.w3.org/Graphics/SVG/1.1/DTD/svg11.dtd" >
<svg xmlns="http://www.w3.org/2000/svg" xmlns:xlink="http://www.w3.org/1999/xlink" version="1.1">
<metadata>
Created by FontForge 20170731 at Wed Feb 14 20:54:23 2001
 By ,,,
(C)2001 Nate Piekos.  www.piekosarts.com/blambotfonts
</metadata>
<defs>
<font id="MangaTempleBold" horiz-adv-x="456" >
  <font-face 
    font-family="Manga Temple"
    font-weight="700"
    font-stretch="normal"
    units-per-em="1024"
    panose-1="2 11 6 3 5 3 2 2 2 4"
    ascent="819"
    descent="-205"
    x-height="901"
    cap-height="923"
    bbox="-89 -220 1124 1064"
    underline-thickness="0"
    underline-position="0"
    unicode-range="U+0020-2026"
  />
<missing-glyph horiz-adv-x="512" 
d="M64 0v991h384v-991h-384zM128 64h256v863h-256v-863z" />
    <glyph glyph-name=".notdef" horiz-adv-x="512" 
d="M64 0v991h384v-991h-384zM128 64h256v863h-256v-863z" />
    <glyph glyph-name=".null" horiz-adv-x="0" 
 />
    <glyph glyph-name="nonmarkingreturn" 
 />
    <glyph glyph-name="space" unicode=" " 
 />
    <glyph glyph-name="exclam" unicode="!" horiz-adv-x="559" 
d="M456 591q-36 -58 -124 -206l-14 -23q-22 -38 -45 -72q-41 -52 -78 -52q-22 0 -37 16t-15 38q0 5 1 10q3 15 37 70q22 37 45 74q171 304 176 537q23 45 95 45q101 0 101 -66q0 -9 -2 -20q-38 -181 -140 -351zM-33 32q10 48 62 86t102 38q35 0 57 -21t22 -53
q0 -54 -57 -100q-53 -42 -109 -42q-39 0 -62.5 26.5t-14.5 65.5z" />
    <glyph glyph-name="quotedbl" unicode="&#x22;" horiz-adv-x="472" 
d="M460 865q-3 -17 -37 -140q-12 -46 -48 -163q-25 -56 -66 -56q-27 0 -46 21t-19 48q0 22 20 93q25 89 27 99q5 26 10 78.5t10 77.5q9 45 57 45q65 0 100 -58zM243 863q-8 -39 -38.5 -153.5t-46.5 -148.5q-25 -55 -65 -55q-27 0 -45.5 21t-18.5 48q0 21 20 92q24 90 26 98
q5 26 10.5 78.5t10.5 78.5q10 46 57 46q29 0 57 -16.5t41 -42.5z" />
    <glyph glyph-name="numbersign" unicode="#" horiz-adv-x="808" 
d="M635 370q6 2 45 18q47 -3 47 -63q0 -15 -4 -31q-11 -52 -45 -73q-19 -11 -63 -18q-35 -6 -41 -18q-12 -34 -36 -101q-33 -83 -82 -83q-55 0 -55 66q0 24 14 59q19 48 22 59q-25 0 -90 3q-37 5 -74 5q-5 0 -8 -5q-15 -47 -48 -143q-44 -121 -99 -121q-24 0 -39.5 18.5
t-15.5 43.5q0 17 38 125q22 60 30 98l3 2q-63 12 -69 13q-44 14 -44 44q0 27 24 47.5t52 20.5q10 0 29 -4.5t29 -4.5q3 0 7 7q14 58 14 78q0 6 -2 9.5t-35 8.5q-39 7 -57 15q-30 13 -30 37q0 26 23 46.5t50 20.5q9 0 25.5 -3.5t25.5 -3.5q12 0 16 18q5 25 5 62q0 63 -14 159
q19 65 113 65q88 0 93 -63q2 -23 -11 -135q-12 -106 -9 -114q1 -1 4 -1q45 0 122 11q12 1 20 11q21 19 17 162q-3 85 -13 141q10 34 46 51q30 15 68 15q88 0 93 -63q1 -15 1 -32q0 -90 -31 -235l15 7q47 -2 47 -61q0 -30 -12.5 -60t-30.5 -43q-6 -4 -37 -13q-26 -8 -30 -17
q-8 -19 -13 -37zM309 319q113 0 167 12q6 1 14 38q5 22 5 24q0 8 -7 8q-9 0 -27.5 -1.5t-28.5 -1.5q-15 0 -44 2t-44 2q-18 0 -35 -83z" />
    <glyph glyph-name="dollar" unicode="$" horiz-adv-x="628" 
d="M220 606q85 30 114 37q55 14 119 14q75 0 118 -35t43 -100q0 -22 -6 -47q-15 -74 -83 -150q-57 -64 -133 -112q-22 -67 -27 -77q-23 -50 -55 -50q-36 0 -36 56q0 5 15 20q-7 0 -45 -12q-15 -1 -30 -4q-6 -30 -23 -59q-22 -38 -45 -38q-20 0 -31.5 20t-9.5 40q17 -2 18 -2
v0l17 -2q-16 -39 -24 -39q-9 0 -9 43v2q0 1 6 30q-61 17 -88 58q-6 110 49 110q5 0 49 -28.5t74 -28.5q72 0 169 54q108 60 108 127q0 31 -33 49q-28 14 -63 14q-28 0 -90 -9q-68 -10 -85 -19q-52 -29 -72 -29q-18 0 -32 13q-30 23 -30 64q0 18 10 65q34 160 160 239
q-2 50 -2 43q0 46 33 68q25 15 53 15q37 0 51 -20q10 -15 11 -52q16 0 19 3t1 20q-1 8 -1 15q0 39 37 59q24 11 48 11q57 0 63 -53v3q1 -7 -3 -68q54 -46 54 -107q0 -49 -62 -68q-29 -9 -75 -11q-14 7 -22 20.5t-15 26.5q-182 -7 -209 -119z" />
    <glyph glyph-name="percent" unicode="%" horiz-adv-x="1018" 
d="M43 30q38 35 135 126q256 242 448 490q98 126 150 211q22 37 74 122q25 26 53 26q43 0 70 -39q23 -35 23 -81q0 -45 -39 -104l-70 -90q-179 -232 -359 -399q-52 -48 -276 -254l-102 -96q-73 -63 -115 -63q-44 0 -44 46q0 56 52 105zM547 -107q-64 0 -98 39q-31 35 -31 93
q0 125 122 247.5t247 122.5q63 0 96 -38q29 -34 29 -92q0 -126 -120 -249t-245 -123zM173 307q-63 0 -97 39q-29 35 -29 93q0 125 121.5 247.5t245.5 122.5q63 0 96 -38q29 -35 29 -92q0 -127 -120.5 -249.5t-245.5 -122.5zM755 191q-56 0 -126 -49q-72 -52 -84 -105
q0 -3 11 -3q56 0 127 52t83 106q0 -1 -11 -1zM383 606q-53 0 -127 -51.5t-84 -101.5q-1 -4 11 -4q57 0 128 52.5t82 106.5q0 -2 -10 -2z" />
    <glyph glyph-name="ampersand" unicode="&#x26;" horiz-adv-x="891" 
d="M304 31l-10 -2q-167 -33 -233 -33q-82 0 -82 51q0 80 315 355q-128 66 -128 143q0 78 116 138q47 23 142 70q8 3 9 11q3 11 -7 82q18 69 122 69q43 0 62 -20q16 -16 23 -58q1 -8 -2 -8l103 36q63 -13 100 -70q33 -50 33 -110q0 -45 -20 -73q-20 -31 -57 -31q-35 0 -78 31
q-71 -10 -141 -20q-81 -15 -135 -45q-30 -17 -30 -21t32 -22q18 -11 53 -31q34 -9 52 -24q15 -13 12 -25q-4 -21 -66 -45q-51 -51 -156 -126q-144 -102 -151 -133q1 2 11 2q104 0 437 83q95 24 107 24q63 0 63 -41q0 -5 -2 -11q-9 -45 -164 -77q-167 -35 -176 -40t-24 -42
q-18 -46 -32 -65q-23 -34 -54 -34q-25 0 -40.5 19.5t-15.5 44.5q0 11 12 48z" />
    <glyph glyph-name="quotesingle" unicode="'" horiz-adv-x="312" 
d="M159 608q-7 -14 -31 -49q-37 -52 -79 -52q-50 0 -50 52q0 19 9 35q46 78 91 156q51 91 78 163q12 30 28.5 41.5t48.5 11.5q66 0 80 -62q-16 -32 -175 -296z" />
    <glyph glyph-name="parenleft" unicode="(" horiz-adv-x="461" 
d="M76 60q-67 133 -67 270q0 244 212 504q141 173 196 173q39 0 59 -35q17 -28 17 -71q0 -63 -43 -117q-298 -206 -298 -447q0 -133 87 -288q14 -24 38 -59q43 -38 38 -64q-5 -21 -27.5 -38.5t-44.5 -17.5q-71 0 -167 190z" />
    <glyph glyph-name="parenright" unicode=")" horiz-adv-x="575" 
d="M229 787q-9 25 -9 52q0 60 43 118q37 50 83 50q60 0 129 -178q50 -129 50 -255q0 -268 -233 -518q-173 -186 -239 -186q-24 0 -42 20t-13 43q5 20 30 39q39 23 97 81q246 248 246 446q0 148 -142 288z" />
    <glyph glyph-name="asterisk" unicode="*" horiz-adv-x="574" 
d="M154 808q-18 11 -39 21q-5 9 -5 18q0 32 58 68q50 31 80 31q24 0 72 -56q10 32 18 72q14 16 34 16q35 0 73 -29q42 -32 35 -67q-3 -15 -19 -45q28 12 60 30q36 -5 36 -60q0 -35 -15.5 -70.5t-36.5 -45.5q-28 -13 -87 -22q17 -62 17 -80q0 -36 -27 -58q-21 -17 -45 -17
q-28 0 -38 24q-9 32 -27 86q-57 -57 -72 -71q-53 -46 -81 -46q-21 0 -36.5 15.5t-15.5 36.5q0 6 1.5 12t94.5 106q-65 11 -101.5 21.5t-36.5 50.5q0 24 15.5 44t38.5 20q18 0 49 -5z" />
    <glyph glyph-name="plus" unicode="+" horiz-adv-x="704" 
d="M245 155l1 6q7 33 29 96t29 96q2 8 -7 10q-24 6 -99 13q-64 6 -99 17q-44 15 -44 50q0 24 20 44.5t43 20.5h5q12 0 97 -10q56 -7 94 -7q7 0 9.5 14t2.5 33q0 51 -23 132q13 51 96 51q71 0 81 -42q5 -20 5 -46q0 -9 -12 -116q-1 -10 4 -10q51 0 168 54q43 -4 43 -57
q0 -17 -5 -37q-13 -64 -54 -81q-25 -10 -102 -18q-73 -9 -87 -16q-10 -6 -38 -86l-34 -98q-31 -71 -71 -71q-23 0 -40.5 17t-11.5 41z" />
    <glyph glyph-name="comma" unicode="," horiz-adv-x="515" 
d="M319 39l-87 -142q-8 -15 -31 -50q-37 -51 -78 -51q-24 0 -38 17q-13 14 -13 36q0 18 8 33q46 77 92 155q51 90 77 161q21 55 77 55q66 0 80 -63q-34 -65 -87 -151z" />
    <glyph glyph-name="hyphen" unicode="-" horiz-adv-x="756" 
d="M109 317q-45 16 -45 49q0 26 21 45.5t48 19.5q19 0 49 -5q35 -6 47 -7q43 -3 92 -3q183 0 333 69q44 -3 44 -57q0 -55 -26 -92q-13 -19 -32 -27q-33 -14 -107 -23q-63 -8 -111 -8t-160 13q-118 14 -153 26z" />
    <glyph glyph-name="hyphen" unicode="&#x2010;" horiz-adv-x="756" 
d="M109 317q-45 16 -45 49q0 26 21 45.5t48 19.5q19 0 49 -5q35 -6 47 -7q43 -3 92 -3q183 0 333 69q44 -3 44 -57q0 -55 -26 -92q-13 -19 -32 -27q-33 -14 -107 -23q-63 -8 -111 -8t-160 13q-118 14 -153 26z" />
    <glyph glyph-name="period" unicode="." horiz-adv-x="499" 
d="M122 68q10 48 61.5 85.5t101.5 37.5q35 0 57.5 -21t22.5 -54q0 -55 -54.5 -98.5t-110.5 -43.5q-39 0 -63 26.5t-15 67.5z" />
    <glyph glyph-name="slash" unicode="/" horiz-adv-x="895" 
d="M-14 11q47 43 167 156q233 224 416 459q97 126 149 211q23 38 76 123q24 26 52 26q43 0 70 -40q24 -35 24 -81t-40 -103l-70 -90q-181 -234 -360 -399q-77 -71 -277 -255q-50 -48 -101 -96q-73 -63 -112 -63q-44 0 -44 47q0 58 50 105z" />
    <glyph glyph-name="zero" unicode="0" horiz-adv-x="884" 
d="M403 -19q-104 -57 -186 -57q-104 0 -154 73q-42 61 -42 163q0 56 13 114q37 176 162.5 348.5t281.5 258.5q105 58 186 58q105 0 155 -74q42 -61 42 -163q0 -56 -12 -114q-38 -179 -162.5 -349.5t-283.5 -257.5zM544 680q-137 -65 -243 -179q-107 -117 -157 -257
q-17 -49 -17 -83q0 -71 78 -71q100 0 221 85q110 77 198 194t109 214q6 31 6 54q0 75 -76 75q-54 0 -119 -32z" />
    <glyph glyph-name="one" unicode="1" horiz-adv-x="500" 
d="M138 -42q-14 23 -6 61q2 7 57 187q65 214 77 381q2 12 4 25q1 8 -4 8q-13 0 -49.5 -11t-56.5 -11q-69 0 -69 61q0 11 3 23q11 52 74 111q48 45 110 81q34 36 96 36q85 0 92 -65q1 -11 1 -27q0 -111 -35 -277q-19 -88 -60 -211q-35 -103 -70 -207q-9 -33 -39 -118
q-31 -74 -79 -74q-29 0 -46 27z" />
    <glyph glyph-name="two" unicode="2" horiz-adv-x="743" 
d="M118 237q40 57 144 215q125 189 128 204q1 3 -4 3q-30 0 -111.5 -40.5t-99.5 -40.5q-48 0 -48 69q0 19 4 38q14 62 56 95q58 47 225 94q152 42 226 42q32 0 48 -23t16 -55q0 -12 -2 -23q-6 -27 -51 -84q-28 -38 -100 -136q-102 -139 -208 -266q-145 -176 -157 -232
q-6 -27 40 -27q63 0 154 21q76 19 152 39l33 8q11 3 16 4h-3q14 2 24 2q45 0 45 -35q0 -41 -50 -65q-12 -6 -27 -10q-108 -32 -237 -60q-160 -34 -235 -34q-94 0 -94 67q0 63 116 230z" />
    <glyph glyph-name="three" unicode="3" horiz-adv-x="702" 
d="M462 524l84 28q50 15 86 15q67 0 67 -59q0 -115 -265 -337q-89 -74 -177 -134q-148 -101 -210 -101q-43 0 -43 39q0 38 53 66q92 50 215 139q158 115 169 165q2 12 -16 12q-34 0 -105 -18q-66 -17 -104 -33q-18 -8 -24 -8q-28 0 -28 31q0 7 2 16q3 16 33 54
q14 17 83 129.5t71 121.5q0 2 3 3q-36 -2 -119.5 -43t-100.5 -41q-49 0 -49 63q0 19 5 43q14 65 56 97q63 50 202 87q58 15 221 47q19 3 28 3q32 0 48 -23t16 -55q0 -41 -53 -107q-20 -29 -74 -101q-27 -33 -74 -99z" />
    <glyph glyph-name="four" unicode="4" horiz-adv-x="784" 
d="M448 296h-8q-25 0 -172 -22q-113 -16 -177 -16q-71 0 -71 44q0 50 150 197q136 132 324 334l-3 15q9 34 45 53q31 16 70 16q84 0 92 -65q1 -14 1 -31q0 -90 -39 -274q-4 -20 -14 -58.5t-14 -57.5q-2 -8 -5 -8q6 0 18 1.5t18 1.5q49 0 49 -40q0 -45 -50 -62q-21 0 -62 -11
q-7 -3 -36 -96q-41 -135 -58 -177q-43 -103 -90 -103q-25 0 -40.5 19t-15.5 45q0 22 47 155q27 77 37 125zM488 500q2 25 6 62q1 4 4 8q3 3 0 3q-208 -179 -210 -189l6 2q10 7 22 7q130 0 149 17q16 15 23 90z" />
    <glyph glyph-name="five" unicode="5" horiz-adv-x="722" 
d="M289 462v-16q-8 15 -5 17l6 3l23 10q116 49 143 59q93 34 143 34q72 0 72 -62q0 -116 -268 -337q-223 -185 -355 -229q-16 -5 -27 -5q-45 0 -45 38t51 68q117 68 216 139q159 113 170 164q2 12 -17 12q-33 0 -105 -18q-68 -16 -102 -32q-18 -8 -25 -8q-24 0 -25 26
l18 -17q-17 17 -18 39l15 283q-6 16 -6 36q0 65 49.5 106.5t209.5 89.5q154 46 226 46q38 0 65 -36.5t27 -79.5q0 -61 -56 -75q-163 -40 -310 -86q-26 -9 -33 -41l-27 -127q-10 0 -10 -1z" />
    <glyph glyph-name="six" unicode="6" horiz-adv-x="898" 
d="M320 395l6 2l53 22q126 45 236 45q108 0 168.5 -38.5t60.5 -102.5q0 -81 -96.5 -174.5t-239 -149t-280.5 -55.5q-116 0 -176 43q-42 31 -42 93q0 23 6 49q36 170 244 407q159 181 353 336q70 56 107 56q56 0 57 -80q0 -18 -8 -95t-12 -96q-9 -49 -33 -89q-34 -57 -79 -57
q-35 0 -50 61q-2 8 -4 25q-1 10 -4 10q-21 0 -131 -91q-101 -83 -136 -121zM350 261q-134 -45 -164 -108q2 -70 121 -70q126 0 261 68q91 47 101 91q7 33 -42 47q-31 10 -73 10q-90 0 -204 -38z" />
    <glyph glyph-name="seven" unicode="7" horiz-adv-x="745" 
d="M753 768q-102 -213 -231 -390q-53 -70 -189 -255q-84 -116 -86 -119q-68 -80 -112 -80q-18 0 -29.5 14t-11.5 32q0 20 21 49q177 252 230 333q172 261 175 330q0 9 -18 9q-91 0 -305 -86q-79 -32 -100 -32q-58 0 -58 77q0 95 78 141q38 23 143 51q88 24 152 35
q154 25 290 25q82 0 82 -53q0 -7 -2 -16t-29 -65z" />
    <glyph glyph-name="eight" unicode="8" horiz-adv-x="978" 
d="M773 524q69 -32 96 -58q37 -35 37 -90q0 -22 -6 -47q-22 -106 -148 -207q-101 -80 -226 -128q-142 -55 -268 -55q-102 0 -170 36q-84 45 -84 133q0 21 5 44q20 95 129 190q42 30 102 74q7 5 7 16q0 2 -8 34q-7 24 -7 50q0 80 63 166q50 68 127 124q151 111 293 111
q81 0 129.5 -40t48.5 -112q0 -23 -6 -48q-10 -48 -46 -102q-14 -22 -68 -91zM501 661q-104 -73 -120 -146q-4 -20 3 -28q55 20 182 48q11 2 40 10.5t77 69.5t48 91q0 26 -52 26q-77 0 -178 -71zM178 195q-54 -56 -54 -98q0 -49 106 -49q132 0 291 71q172 75 237 178
q17 26 17 49q0 50 -103 50q-119 0 -264 -59q-149 -59 -230 -142z" />
    <glyph glyph-name="nine" unicode="9" horiz-adv-x="844" 
d="M414 297v29q20 0 20 -16t-20 -20q-9 -2 -31 -6q-76 -27 -147 -27q-97 0 -158 51.5t-61 138.5q0 27 7 56q34 163 201 291q163 126 328 126q90 0 147 -42q43 26 102 26q69 0 69 -49q0 -8 -2 -15q-2 -11 -31 -71q-101 -213 -231 -390q-34 -45 -188 -254q-44 -60 -87 -119
q-67 -81 -110 -81q-21 0 -33.5 18t-8.5 38q5 22 115 170q106 143 107 151q10 0 12 -5zM517 729q-105 0 -219 -82q-118 -85 -140 -186q-3 -17 -3 -31q0 -60 81 -60q74 0 163.5 46t131.5 107q19 28 67 136q2 70 -81 70z" />
    <glyph glyph-name="colon" unicode=":" horiz-adv-x="418" 
d="M136 472q11 48 62.5 86t101.5 38q35 0 57.5 -20.5t22.5 -53.5q0 -54 -57 -100q-54 -42 -110 -42q-40 0 -62.5 26.5t-14.5 65.5zM45 49q10 48 62.5 85t102.5 37q35 0 57 -21t22 -53q0 -55 -56 -100q-52 -42 -108 -42q-40 0 -64 26.5t-16 67.5z" />
    <glyph glyph-name="semicolon" unicode=";" horiz-adv-x="476" 
d="M187 481q10 48 61.5 85.5t101.5 37.5q36 0 58.5 -20.5t22.5 -53.5q0 -54 -58 -99q-54 -43 -110 -43q-38 0 -61.5 26.5t-14.5 66.5zM256 22q-47 -76 -88 -141q-9 -18 -30 -51q-41 -50 -80 -50q-50 0 -50 51q0 19 9 34q46 78 91 155q51 90 78 162q21 54 77 54q66 0 80 -63
q-34 -64 -87 -151z" />
    <glyph glyph-name="less" unicode="&#x3c;" horiz-adv-x="557" 
d="M518 770q-208 -178 -343 -359q49 -219 147 -392q33 -59 33 -84q0 -28 -24 -50q-19 -16 -41 -16q-58 0 -176 237q-57 114 -87 248q-19 22 -19 47q0 37 42 69q146 260 382 496q31 11 56 11q40 0 69 -28.5t29 -67.5q0 -52 -68 -111z" />
    <glyph glyph-name="equal" unicode="=" horiz-adv-x="826" 
d="M204 443q-21 2 -76 10q-51 16 -51 50q0 27 23 46t50 19q22 0 55 -5q42 -6 54 -7q52 -4 105 -4q204 0 372 69q46 -2 46 -65q0 -34 -16.5 -66t-45.5 -44q-78 -31 -246 -31q-33 0 -270 28zM308 211q-45 7 -135 19q-21 2 -76 10q-51 16 -51 49q0 28 23 47t50 19q21 0 55 -5
q42 -6 54 -7q52 -5 104 -5q205 0 373 70q46 -3 46 -62q0 -36 -15 -67q-17 -35 -47 -47q-81 -31 -241 -31q-65 0 -140 10z" />
    <glyph glyph-name="greater" unicode="&#x3e;" horiz-adv-x="600" 
d="M343 102q-215 -233 -269 -233q-21 0 -34.5 14t-13.5 34q0 27 32 66q36 36 128 134q115 128 228 301q-59 176 -190 355q-29 40 -29 78q0 52 53 93q42 33 84 33q25 0 55 -12q136 -240 173 -499q20 -22 20 -46q0 -38 -44 -70q-87 -133 -193 -248z" />
    <glyph glyph-name="question" unicode="?" horiz-adv-x="707" 
d="M81 581q-46 0 -46 72q0 26 7 59q12 55 40 116q322 173 512 173q70 0 113 -27q50 -31 50 -92q0 -16 -4 -35q-41 -194 -442 -468q-100 -156 -138 -156q-29 0 -29 44q0 31 13 90q13 64 27 84l64 51q253 198 267 260q3 14 -34 14q-68 0 -265 -80q-87 -105 -135 -105zM4 28
q11 48 63 85.5t102 37.5q35 0 57.5 -21t22.5 -54q0 -54 -57 -98q-53 -42 -109 -42q-39 0 -63 26t-16 66z" />
    <glyph glyph-name="at" unicode="@" horiz-adv-x="1125" 
d="M978 269q-48 -70 -119 -140q-97 -96 -151 -96q-59 0 -88 58q-11 22 -5 94q0 -1 -3 -1q-7 -1 -21 -8q-124 -63 -239 -63q-81 0 -132 40q-55 42 -55 114q0 21 4 43q30 140 196 249q154 102 297 102q81 0 136 -37q62 -41 62 -113q0 -19 -4 -39q-7 -29 -48 -108
q-39 -74 -58 -164q-2 -8 -5.5 -18t-3.5 -12q0 -4 4 -4q11 0 84 72q56 55 92 121q42 78 42 148q0 29 -7 56q-7 24 -42 96q-44 93 -207 93q-85 0 -154 -21q-60 -18 -144 -63q-45 -24 -184 -180q-76 -85 -96 -179q-7 -33 -7 -62q0 -120 121 -177q63 -30 143 -30q18 0 53.5 5.5
t53.5 5.5q51 0 51 -60q0 -84 -183 -84q-163 0 -254 92q-88 88 -88 235q0 53 13 110q52 245 270 432q223 191 470 191q185 0 276 -130q59 -85 59 -200q0 -184 -129 -368zM567 447q-70 0 -140 -27q-77 -30 -117 -79q-17 -20 -17 -37q0 -27 46 -41q33 -10 75 -10q68 0 139 27
q79 30 118 78q19 22 19 37q0 22 -38 37t-85 15z" />
    <glyph glyph-name="A" unicode="A" horiz-adv-x="871" 
d="M752 87q-8 -37 -31 -64q-26 -31 -62 -31q-32 0 -47 41q-8 33 -15 66q-4 14 -13 49l-5 6l-7 2q-267 -47 -327 -81q-15 -9 -55 -69t-92 -60q-28 0 -46 19t-18 45q0 8 2 15q5 23 36 60q25 28 49 56q253 310 350 545q17 43 41 153q11 55 101 55q84 0 84 -50q0 -6 -2 -14
t-16 -46q4 -123 9 -247q6 -141 22 -246q53 -13 53 -58q0 -32 -34 -51q13 -33 27 -74zM379 250q91 21 166 31l4 5l2 7q-8 63 -25 150l2 2q-4 0 -17 -17q-66 -92 -132 -178z" />
    <glyph glyph-name="B" unicode="B" horiz-adv-x="794" 
d="M65 -60q-24 0 -38.5 17t-14.5 41q0 21 21 80q15 42 30 83q75 242 75 441q0 84 -14 160q19 65 107 65q24 0 43 -7q205 98 334 98q119 0 119 -87q0 -112 -220 -326q12 1 23 1q73 0 121 -27q58 -33 58 -97q0 -16 -4 -34q-27 -125 -231 -255q-149 -94 -372 -140
q-19 -13 -37 -13zM522 718q-29 0 -98 -24q-63 -21 -94 -39q-17 -10 -21 -26q-15 -73 -14 -103h2.5h5.5q216 130 229 193q0 -1 -10 -1zM260 363q-26 -102 -64 -205q-15 -41 -20 -64q-1 -2 -3 -2q17 2 83 27q251 92 251 184q0 76 -200 76q-33 0 -47 -16z" />
    <glyph glyph-name="C" unicode="C" horiz-adv-x="858" 
d="M49 -15q-35 35 -35 92q0 23 5 49q35 163 245 401q161 181 351 333q69 55 107 55q56 0 56 -87q0 -13 -8 -87q-10 -82 -12 -96q-10 -48 -34 -89q-34 -56 -77 -56q-38 0 -52 60q-1 8 -2 24q-1 9 -4 9q-5 0 -13 -4q-113 -64 -229 -180q-135 -136 -157 -238q-3 -15 -3 -28
q0 -59 87 -59q116 0 330 122q31 22 85 53l8 4q15 6 37 6q59 0 59 -51q0 -8 -2 -18q-10 -47 -60 -75q-116 -63 -267 -118q-181 -65 -279 -65q-91 0 -136 43z" />
    <glyph glyph-name="D" unicode="D" horiz-adv-x="886" 
d="M609 272q-205 -206 -469 -324q-22 -17 -68 -17q-51 0 -51 46q0 8 2 17q12 57 48.5 168t48.5 168q29 135 29 251q0 27 -2 52q-51 12 -51 65q0 67 124 108q110 37 219 73q128 38 228 38q95 0 155.5 -49t60.5 -134q0 -26 -6 -54q-38 -176 -268 -408zM201 98q1 0 13 5
q119 54 267 201q186 186 186 297q0 87 -124 87q-112 0 -196 -31q-14 -5 -19 -28q-15 -154 -31 -227q-25 -119 -82 -292q-2 -7 -8 -21q-5 -8 -14 -8q-8 0 -14 7t-4 15z" />
    <glyph glyph-name="E" unicode="E" horiz-adv-x="882" 
d="M272 374l180 42q103 22 183 22q86 0 86 -60q0 -8 -2 -18q-7 -34 -47 -48q-24 -2 -82.5 -9t-191.5 -39q-73 -17 -107 -27q-87 -26 -96 -43q-4 -8 -4 -23q0 -48 61 -75q48 -21 102 -21q70 0 160 22q31 8 156 46q36 10 57 10q24 0 43 -14q22 -17 16 -41q-7 -34 -83 -65
q-263 -107 -439 -107q-116 0 -186 60q-73 61 -73 165q0 31 7 65q39 182 238 395q194 209 457 311q60 1 99 -55q34 -50 34 -115q0 -42 -17 -74q-20 -38 -59 -38q-23 0 -57 20t-33 20q-57 0 -217 -123.5t-185 -182.5z" />
    <glyph glyph-name="F" unicode="F" horiz-adv-x="739" 
d="M239 361q164 37 185 41q102 20 187 20q80 0 80 -57q0 -8 -2 -17q-8 -34 -49 -47q-128 -12 -239.5 -35.5t-170.5 -46.5q-28 -11 -31 -28q-24 -111 -34 -143q-38 -118 -96 -118q-26 0 -43.5 17.5t-17.5 41.5q0 25 16 84q22 82 23 86q48 227 48 419q0 79 -8 153q9 32 27 45
q14 10 49 15q55 9 199 68q137 57 202 57q84 0 128 -67q30 -44 52 -141q-8 -42 -49 -89q-44 -50 -85 -50q-54 0 -47 85q-31 48 -75 48q-26 0 -82 -12q-51 -12 -80 -23q-35 -13 -63 -140q-22 -100 -24 -166z" />
    <glyph glyph-name="G" unicode="G" horiz-adv-x="817" 
d="M681 136q-68 -66 -134 -97q-226 -108 -365 -108q-88 0 -136 50q-45 47 -45 126q0 163 213 458q73 101 160 197q142 156 207 156h7q47 -8 60 -80q1 -19 6 -94q8 -118 0 -152q-7 -32 -25 -58q-23 -32 -52 -32q-36 0 -65 56q-5 10 -11 26q-3 11 -6 11q-2 0 -10 -6
q-95 -64 -189 -179q-105 -128 -125 -225q-5 -23 -5 -42q0 -78 100 -78q56 0 156 48q87 43 143 87q11 9 2 11q-4 2 -31 2q-87 0 -123 -8q-44 -11 -51 -11q-35 0 -35 35q0 39 37 87q32 41 71 65l102 20q61 11 104 11q52 0 93 -32t41 -82q0 -69 -94 -162z" />
    <glyph glyph-name="H" unicode="H" horiz-adv-x="835" 
d="M485 61q0 12 6 28q7 24 30 96q18 55 26 95l3 10q-31 0 -163 -35q-135 -36 -147 -50q-14 -18 -38 -93q-28 -88 -45 -121q-31 -60 -69 -60q-24 0 -42 18t-18 42q0 8 3 16q19 63 57 187q79 254 79 444q0 77 -11 149q8 33 45 51q30 15 68 15q83 0 92 -61q2 -14 2 -35
q0 -112 -58 -339q-6 -17 -15 -50q-2 -7 0 -7q9 0 52.5 14.5t55.5 16.5q65 10 171 30q12 2 14 8q33 157 33 290q0 70 -9 135q10 36 49 57q34 19 75 19q74 0 80 -60q2 -12 2 -28q0 -131 -38 -308q-15 -71 -100 -342q-10 -33 -38 -116q-36 -77 -86 -77q-25 0 -45.5 18t-20.5 43
z" />
    <glyph glyph-name="I" unicode="I" horiz-adv-x="866" 
d="M855 725q-25 -13 -77 -13q-33 0 -103 -8q-84 -11 -90.5 -21t-16.5 -76q-12 -81 -13 -84q-19 -92 -84 -263q-30 -77 -40 -128q-2 -6 0 -6q40 0 121.5 18t121.5 19q69 -26 69 -74q0 -7 -1 -15q-12 -56 -99 -56q-8 0 -24 1.5t-24 1.5q-77 0 -220 -31q-111 -25 -223 -49
q-101 -19 -111 -19q-34 0 -57 20.5t-23 47.5q0 44 56 67q20 7 107 23l113 19q40 8 52 37q45 109 84 292q32 149 32 184q0 36 -20 36q-16 0 -86 -30q-76 -33 -106 -33q-36 0 -57 30q-19 27 -19 63q0 60 60 105l330 87q189 49 336 53q62 -41 62 -99q0 -72 -50 -99z" />
    <glyph glyph-name="J" unicode="J" horiz-adv-x="851" 
d="M657 224q-146 -260 -328 -260q-96 0 -168 87q-46 58 -94 172q-32 79 -27 104q6 27 30 45t53 18q45 0 63 -48q28 -230 145 -230q94 0 175 127q65 101 89 212q10 47 12 115q2 28 4 57q0 19 -8 19q-16 0 -49 -10.5t-50 -10.5q-48 0 -48 45q0 8 2 17q10 45 65 88q21 17 94 61
q35 21 69 42q44 23 75 23q64 0 64 -121q0 -63 -19 -152q-46 -217 -149 -400z" />
    <glyph glyph-name="K" unicode="K" horiz-adv-x="806" 
d="M522 220q77 -95 77 -157q0 -70 -70 -70q-30 0 -52 33q-144 220 -215 220q-42 0 -78 -71q-22 -51 -67 -152q-42 -91 -88 -91q-24 0 -39.5 18t-15.5 42q0 7 2 14q13 64 56 191t57 193q30 140 30 264q0 69 -9 133q8 33 45 51q30 15 68 15q83 0 92 -61q1 -7 1 -18
q0 -40 -23 -177.5t-34 -162.5q-3 -7 -8 -11.5t-3 -4.5q11 0 45 28q223 184 399 469q19 15 43 15q40 0 74.5 -32.5t34.5 -72.5q0 -8 -2 -16q-7 -37 -148 -186q-124 -133 -183 -181q-41 -34 -80 -70q10 -53 91 -152z" />
    <glyph glyph-name="L" unicode="L" horiz-adv-x="751" 
d="M172 145q243 82 434 82q40 0 63 -18t23 -43q0 -43 -53 -59q-29 -8 -87 -9q-186 -24 -456 -116q-22 -22 -46 -22t-38.5 18t-14.5 42q0 23 22 85q16 43 32 87q81 264 81 475q0 78 -11 149q20 66 126 66q93 0 101 -62q1 -14 1 -33q0 -72 -28 -204q-16 -79 -55 -184
q-34 -90 -69 -180q-19 -52 -25 -74z" />
    <glyph glyph-name="M" unicode="M" horiz-adv-x="1036" 
d="M277 295q-14 -28 -30 -77q-21 -63 -28 -78q-21 -53 -37 -100q-22 -61 -32 -78q-26 -47 -63 -47q-25 0 -41.5 19t-16.5 44q0 21 21 89q14 46 29 92q75 254 75 447q0 86 -14 166q19 63 123 63q114 0 114 -97q0 -26 -10 -79q-9 -56 -10 -79q-2 -73 33 -217q38 -160 76 -160
q49 0 174 254q41 83 141 311q-11 83 -11 77q0 49 61 66q34 10 70 10q100 0 110 -59q3 -16 3 -41q0 -118 -36 -286q-15 -70 -107 -370q-19 -59 -37 -111q-34 -71 -77 -71q-25 0 -40.5 18.5t-15.5 43.5q0 20 16 70q19 63 22 75q8 37 16 126q2 28 9 54t7 27q-9 -9 -63 -99
q-85 -141 -124 -193q-82 -108 -136 -108q-72 0 -119 133q-17 55 -52 165z" />
    <glyph glyph-name="N" unicode="N" horiz-adv-x="910" 
d="M548 -24q-82 0 -150 99q-38 55 -85 170q-12 34 -29 78q-11 -31 -50 -136q-62 -169 -69 -182q-33 -70 -75 -70q-26 0 -41.5 18t-15.5 43q0 22 22 84q15 43 30 87q77 257 77 460q0 86 -14 164q17 64 127 64q62 0 87 -21t25 -64q0 -21 -6 -51q-6 -40 -6 -60q0 -13 17 -94
q91 -422 177 -422q43 0 72 140q28 132 28 293q0 139 -20 301q8 34 50 52q33 14 75 14q90 0 101 -61q1 -9 0 -58q-4 -206 -46 -407q-94 -441 -281 -441z" />
    <glyph glyph-name="O" unicode="O" horiz-adv-x="884" 
d="M403 -19q-104 -57 -186 -57q-104 0 -154 73q-42 61 -42 163q0 56 13 114q37 176 162.5 348.5t281.5 258.5q105 58 186 58q105 0 155 -74q42 -61 42 -163q0 -56 -12 -114q-38 -179 -162.5 -349.5t-283.5 -257.5zM544 680q-137 -65 -243 -179q-107 -117 -157 -257
q-17 -49 -17 -83q0 -71 78 -71q100 0 221 85q110 77 198 194t109 214q6 31 6 54q0 75 -76 75q-54 0 -119 -32z" />
    <glyph glyph-name="P" unicode="P" horiz-adv-x="775" 
d="M557 382q-159 -165 -375 -268q-18 -52 -33 -101q-37 -86 -87 -86q-25 0 -39.5 18t-14.5 42q0 23 21 84l30 86q76 264 76 460q0 85 -13 161q20 69 123 69q17 0 29 -2q203 75 319 75q81 0 131 -43t50 -116q0 -154 -217 -379zM223 273q2 1 16 9q96 55 195 149
q126 120 126 196q0 58 -111 58q-122 0 -127.5 -27t-13.5 -84t-14 -85q-21 -101 -55 -208q-2 -6 -7 -16t-14 -10q-7 0 -13 7.5t-5 15.5z" />
    <glyph glyph-name="Q" unicode="Q" horiz-adv-x="893" 
d="M711 262q-51 -66 -105 -138q-1 -4 29 -62q32 -61 32 -101q0 -36 -24 -59q-19 -19 -43 -19q-25 0 -48 37q-11 19 -32 68q-15 37 -21 37q-3 0 -45 -27q-133 -86 -230 -86q-105 0 -155 73q-42 61 -42 164q0 56 12 114q38 180 163 353t283 263q103 59 186 59q105 0 155 -73
q42 -61 42 -163q0 -58 -14 -120q-32 -154 -143 -320zM550 677q-138 -66 -255 -197q-126 -141 -156 -280q-6 -29 -6 -51q0 -72 78 -72q92 0 182 63q5 3 11 10q1 3 -64 77.5t-59 104.5q7 33 73 33q45 0 84 -14q81 -103 89 -103q5 0 24 19q156 157 189 314q7 30 7 52
q0 75 -78 75q-54 0 -119 -31z" />
    <glyph glyph-name="R" unicode="R" horiz-adv-x="786" 
d="M467 36q-63 39 -113 55q-125 40 -161 40q-4 0 -7 -12q-5 -15 -9 -30q-30 -82 -39 -100q-30 -64 -70 -64q-24 0 -41 17.5t-17 40.5q0 9 3 18q18 59 51 173q76 253 76 441q0 84 -14 162q9 36 49 56q33 16 74 16q15 0 26 -3q195 72 308 72q83 0 134 -39q54 -42 54 -115
q0 -22 -5 -46q-23 -107 -123 -236q-85 -108 -189 -191q-42 -30 -85 -64l13 -2q17 -2 35 -9q73 -32 102 -50q67 -42 67 -87q0 -28 -17.5 -47.5t-45.5 -19.5q-15 0 -56 24zM223 268q-2 2 -1 8q81 30 204 150q134 129 134 203q0 57 -99 57q-26 0 -74 -5q-58 -6 -60 -14
q-6 -30 -14 -91t-15 -92q-19 -90 -56 -209l-4 -11q-1 -5 -5 -5q-5 0 -12 9q-12 -1 -15 0t-2 4z" />
    <glyph glyph-name="S" unicode="S" horiz-adv-x="851" 
d="M551 68q-193 -141 -363 -141q-126 0 -182 79q-10 141 62 141q13 0 39 -20q36 -27 54 -37q39 -20 82 -20q98 0 229 77q145 85 145 176q0 44 -47 71q-40 23 -88 23q-41 0 -126 -14q-92 -15 -118 -29q-66 -36 -93 -36q-35 0 -58 31q-20 28 -21 65q-1 26 13 92
q43 201 196 308q147 102 346 102h4q55 0 104 -51.5t49 -107.5q0 -105 -177 -116q-17 10 -28 28t-20 35q-148 -21 -206 -67q-80 -63 -88 -102q-2 -8 -3 -8q3 0 20 7q104 39 250 39q107 0 177 -32q91 -43 91 -133q0 -21 -5 -44q-36 -168 -238 -316z" />
    <glyph glyph-name="T" unicode="T" horiz-adv-x="771" 
d="M766 725q-20 -9 -53 -9q-7 0 -22 1h-23q-23 0 -83 -8q-66 -9 -76.5 -16t-16.5 -65q-16 -153 -77 -335q-21 -63 -63 -187q-9 -29 -34 -103q-33 -70 -77 -70q-24 0 -41 18t-17 41q0 9 3 17q4 20 52 178q76 249 76 408q0 30 -2 58q-2 16 -7 16q-30 0 -94.5 -22t-96.5 -22
q-34 0 -56 33q-20 29 -20 66q0 55 59 99q394 95 657 101q63 -39 63 -98q0 -30 -13 -58q-14 -32 -38 -43z" />
    <glyph glyph-name="U" unicode="U" horiz-adv-x="840" 
d="M513 135q-15 -11 -57 -40q-201 -141 -291 -141q-68 0 -98 62q-21 45 -21 137q0 162 68 480q20 94 39 129q37 63 112 63q69 0 79 -56q-41 -180 -94 -368q-18 -61 -30 -117q-16 -77 -16 -116q0 -61 41 -61q11 0 21 2q42 7 141 74q76 51 139 103q26 29 40 97q30 141 30 266
q0 93 -17 180q9 34 50 55q34 17 74 17q75 0 83 -54q3 -14 3 -37q0 -113 -30 -255q-17 -78 -53 -187q-32 -93 -63 -185q-10 -32 -38 -114q-34 -72 -78 -72q-25 0 -41 17.5t-16 41.5q0 15 8 39q7 19 14 39z" />
    <glyph glyph-name="V" unicode="V" horiz-adv-x="835" 
d="M149 2q-40 70 -75 319q-18 120 -18 217q0 90 15 161q10 46 51 85t87 39q64 0 64 -70q0 -32 -20 -103q-43 -157 -44 -278q-1 -113 44 -190l19 -32q7 0 39 28q174 159 312 660q64 70 120 70q92 0 92 -106q0 -24 -6 -49q-15 -71 -89 -205q-57 -104 -120 -195
q-89 -127 -219 -283q-51 -60 -74 -80q-50 -46 -93 -46q-23 0 -48.5 19t-36.5 39z" />
    <glyph glyph-name="W" unicode="W" horiz-adv-x="982" 
d="M233 209q9 11 81 109q80 108 114 162q-3 50 41 111q46 65 94 65q13 0 24 -3q25 -13 31 -44q4 -92 29 -224q17 -91 24 -119q12 -42 24 -45q-6 1 -3 10q18 54 39 155q33 155 33 285q0 87 -14 163q7 35 48 56q35 17 75 17q75 0 83 -55q3 -14 3 -37q0 -113 -30 -254
q-17 -78 -54 -190q-31 -93 -63 -187q-9 -30 -36 -109q-33 -70 -82 -70q-85 0 -170 202q-11 39 -41 106q-2 -3 -58 -69q-69 -80 -167 -173q-134 -128 -178 -128q-22 0 -36.5 17.5t-14.5 39.5q0 9 3 17l2 7q33 106 89 319q31 148 31 275q0 83 -13 157q9 36 48 55q33 16 74 16
q74 0 84 -55q3 -19 3 -46q0 -99 -43 -281q-35 -149 -74 -255z" />
    <glyph glyph-name="X" unicode="X" horiz-adv-x="871" 
d="M642 307q39 -89 53 -113q39 -50 39 -90q0 -8 -1 -17q-10 -47 -75 -47q-41 0 -65 33q-29 39 -65 101q-31 51 -62 103q-4 6 -5 6t-10 -7l-187 -162q-72 -63 -107 -99q-12 -14 -46 -49q-43 -40 -78 -40q-44 0 -44 61q0 11 3 22q9 43 190.5 222.5t184.5 195.5q6 27 -103 128
q-51 48 -132 86q-15 17 -15 37q0 42 56 83q53 38 99 38q45 0 107 -55q41 -37 93 -102q43 -55 45 -55q1 0 11 12q127 150 184 292q23 29 57 29q43 0 74.5 -35t31.5 -79q0 -10 -2 -20q-15 -73 -205 -295q-63 -74 -65 -84q-2 -7 39 -100z" />
    <glyph glyph-name="Y" unicode="Y" horiz-adv-x="808" 
d="M-10 -4q0 32 42 65q96 62 175 133q72 64 75 80q4 14 -4 28q-157 262 -157 372q0 11 2 20q8 38 45 74.5t75 36.5q48 0 68 -59q21 -117 31 -158q21 -90 53 -152l6 -12q12 0 61 84q60 102 145 277q10 21 36 72q34 50 81 50q43 0 68 -38q21 -33 21 -79q0 -18 -4 -33
q-16 -75 -145 -248q-93 -125 -184 -226q-187 -205 -377 -322q-29 -18 -52 -18q-22 0 -41.5 16t-19.5 37z" />
    <glyph glyph-name="Z" unicode="Z" horiz-adv-x="923" 
d="M254 93q7 0 21 2q118 18 193 21.5t126 12.5q2 0 32 7q21 5 38 5q28 0 53.5 -22t25.5 -47q0 -45 -80 -61q-154 -30 -303 -39q-107 -7 -199 -22q-102 -17 -112 -17q-74 0 -74 39q0 32 46 79q283 289 301 309q247 257 253 287q2 11 -13 13h-45q-68 0 -155 -27
q-6 -2 -149 -53q-27 -10 -49 -10q-64 0 -64 67q0 17 4 35q16 75 74 129q273 102 550 102q75 0 129 -21q76 -29 76 -91q0 -11 -3 -24q-4 -19 -19.5 -49t-29.5 -44q-97 -99 -303.5 -286.5t-304.5 -287.5q-15 -15 -16 -20q-6 0 -3 13z" />
    <glyph glyph-name="bracketleft" unicode="[" horiz-adv-x="598" 
d="M121 20l16 -4v-2q-5 -23 22 -23q30 0 91 7.5t91 7.5q97 0 97 -64q0 -36 -34 -71.5t-78 -38.5q-56 -4 -138 -4h-131q-17 -15 -35 -15q-29 0 -46 33q-15 28 -15 63q0 12 2 21l35 -7q-4 3 -5 4l-13 -3q-15 11 -12 22q128 466 128 796q0 76 -6 147q-3 25 -7 50q-4 33 0 49
q11 53 91 53q25 0 42 -6q84 7 251 23q51 6 87 6q87 0 87 -82q0 -50 -37 -94q-40 -49 -101 -56q-32 -4 -96.5 -1.5t-95.5 -0.5q-13 -2 -15 -29q-16 -229 -44 -359q-20 -94 -81 -311l-27 -92q-2 -9 -7 -25q-1 -2 74 145z" />
    <glyph glyph-name="backslash" unicode="\" horiz-adv-x="804" 
d="M642 -141q-39 0 -87 63q-32 50 -64 99q-174 263 -205 315q-88 152 -153 341q-38 109 -38 143q0 59 53 117q46 49 93 49q32 0 47 -32q6 -37 23 -123q69 -340 297 -699q24 -34 83 -124q18 -29 18 -61q0 -35 -16 -59q-18 -29 -51 -29z" />
    <glyph glyph-name="bracketright" unicode="]" horiz-adv-x="668" 
d="M248 22l1 5q2 23 14 111q28 205 50 309q24 114 110 361q8 21 3 22q-29 3 -102 0q-65 -3 -102 4t-58 37q-20 27 -20 65q0 50 32 87q35 41 92 41q34 0 83 -6q42 -4 83 -9l161 -14q19 6 43 6q78 0 78 -47q0 -22 -20 -58l-32 -54q-189 -362 -279 -943q-2 -12 -2 -15
q-28 8 -34 6l34 -7q-7 -34 -36 -69q-32 -41 -63 -41q-19 0 -31 14q-116 -1 -265 5q-34 1 -56 28q-21 24 -21 57q0 37 27 61q32 28 92 28q30 0 89.5 -7.5t89.5 -7.5q32 0 39 31z" />
    <glyph glyph-name="underscore" unicode="_" horiz-adv-x="1068" 
d="M409 -135l-151 17q-30 1 -87 10q-56 15 -56 50q0 27 23.5 46.5t50.5 19.5q24 0 63 -5q49 -7 63 -8q60 -4 121 -4q227 0 414 67q52 0 52 -66q0 -33 -17 -63q-19 -33 -50 -44q-36 -14 -131 -23q-80 -7 -137 -7q-68 0 -158 10z" />
    <glyph glyph-name="a" unicode="a" horiz-adv-x="869" 
d="M752 87q-8 -37 -31 -64q-26 -31 -62 -31q-32 0 -47 41q-8 33 -15 66q-4 14 -13 49l-5 6l-7 2q-267 -47 -327 -81q-15 -9 -55 -69t-92 -60q-28 0 -46 19t-18 45q0 8 2 15q5 23 36 60q25 28 49 56q253 310 350 545q17 43 41 153q11 55 101 55q84 0 84 -50q0 -6 -2 -14
t-16 -46q4 -123 9 -247q6 -141 22 -246q53 -13 53 -58q0 -32 -34 -51q13 -33 27 -74zM379 250q91 21 166 31l4 5l2 7q-8 63 -25 150l2 2q-4 0 -17 -17q-66 -92 -132 -178z" />
    <glyph glyph-name="b" unicode="b" horiz-adv-x="797" 
d="M68 -60q-24 0 -38.5 17t-14.5 41q0 21 21 80q15 42 30 83q74 242 74 441q0 84 -13 160q18 65 106 65q25 0 43 -7q206 98 334 98q119 0 119 -87q0 -112 -219 -326q12 1 22 1q74 0 122 -27q57 -33 57 -97q0 -16 -3 -34q-27 -125 -232 -255q-148 -94 -371 -140
q-19 -13 -37 -13zM525 718q-29 0 -98 -24q-63 -21 -95 -39q-17 -10 -20 -26q-16 -73 -14 -103h2.5h4.5q217 130 230 193q0 -1 -10 -1zM263 363q-27 -102 -65 -205q-15 -41 -20 -64q0 -2 -3 -2q17 2 84 27q251 92 251 184q0 76 -201 76q-32 0 -46 -16z" />
    <glyph glyph-name="c" unicode="c" horiz-adv-x="844" 
d="M36 -15q-37 36 -37 95q0 161 250 444q90 103 215 219q184 172 244 172q56 0 56 -87q0 -10 -8 -87t-12 -95q-9 -50 -33 -90q-35 -56 -79 -56q-38 0 -51 60q-1 7 -3 24q0 9 -4 9t-11 -4q-116 -65 -230 -180q-134 -134 -157 -238q-3 -15 -3 -28q0 -59 88 -59q121 0 328 122
q27 17 94 57q15 6 37 6q59 0 59 -50q0 -9 -2 -19q-10 -47 -60 -74q-114 -63 -267 -119q-180 -65 -278 -65q-91 0 -136 43z" />
    <glyph glyph-name="d" unicode="d" horiz-adv-x="886" 
d="M609 272q-205 -206 -468 -324q-23 -17 -69 -17q-51 0 -51 46q0 8 2 17q12 57 48.5 168t48.5 168q29 135 29 251q0 27 -2 52q-51 12 -51 65q0 67 124 108q110 37 220 73q127 38 227 38q96 0 156 -49t60 -134q0 -26 -6 -54q-37 -176 -268 -408zM201 98q1 0 14 5
q119 54 267 201q185 186 185 297q0 87 -124 87q-112 0 -196 -31q-14 -5 -19 -28q-15 -154 -30 -227q-26 -119 -83 -292q-2 -7 -8 -21q-5 -8 -14 -8q-8 0 -14 7t-4 15z" />
    <glyph glyph-name="e" unicode="e" horiz-adv-x="885" 
d="M273 374l180 42q103 22 183 22q86 0 86 -60q0 -8 -2 -18q-7 -34 -47 -48q-25 -2 -83 -9t-191 -39q-73 -17 -107 -27q-87 -26 -96 -43q-4 -8 -4 -23q0 -48 61 -75q48 -21 102 -21q70 0 160 22q31 8 156 46q36 10 57 10q24 0 43 -14q21 -17 16 -41q-7 -34 -83 -65
q-263 -107 -439 -107q-116 0 -187.5 60.5t-71.5 164.5q0 31 7 65q39 182 237 395q195 209 457 311q61 1 99 -55q35 -50 35 -115q0 -42 -17 -74q-20 -38 -59 -38q-23 0 -57 20t-33 20q-58 0 -217.5 -123.5t-184.5 -182.5z" />
    <glyph glyph-name="f" unicode="f" horiz-adv-x="739" 
d="M239 361q164 37 185 41q102 20 187 20q80 0 80 -57q0 -8 -2 -17q-8 -34 -49 -47q-128 -12 -239.5 -35.5t-170.5 -46.5q-28 -11 -31 -28q-24 -111 -34 -143q-38 -118 -96 -118q-26 0 -43.5 17.5t-17.5 41.5q0 25 16 84q22 82 23 86q48 227 48 419q0 79 -8 153q9 32 27 45
q14 10 49 15q55 9 199 68q137 57 202 57q84 0 128 -67q30 -44 52 -141q-8 -42 -49 -89q-44 -50 -85 -50q-54 0 -47 85q-31 48 -75 48q-26 0 -82 -12q-51 -12 -80 -23q-35 -13 -63 -140q-22 -100 -24 -166z" />
    <glyph glyph-name="g" unicode="g" horiz-adv-x="818" 
d="M682 136q-68 -66 -134 -97q-226 -108 -365 -108q-89 0 -136 50q-45 47 -45 126q0 163 213 458q73 101 160 197q142 156 207 156h7q47 -8 60 -80q1 -19 6 -94q7 -118 0 -152q-7 -33 -25 -58q-23 -32 -52 -32q-36 0 -65 56q-5 10 -11 26q-4 11 -6 11t-11 -6
q-95 -64 -189 -179q-104 -128 -125 -225q-5 -23 -5 -42q0 -78 100 -78q57 0 157 48q87 43 142 87q12 9 3 11q-4 2 -31 2q-87 0 -123 -8q-44 -11 -51 -11q-35 0 -35 35q0 39 37 87q32 41 71 65l102 20q61 11 103 11q53 0 94 -32t41 -82q0 -69 -94 -162z" />
    <glyph glyph-name="h" unicode="h" horiz-adv-x="824" 
d="M487 87q2 12 30 98q19 55 27 95q2 10 3 10q-31 0 -163 -35q-135 -36 -146.5 -49.5t-39.5 -95.5q-32 -95 -39 -110q-32 -69 -73 -69q-25 0 -42.5 17.5t-17.5 40.5q0 9 2 17q5 21 57 188q79 254 79 444q0 77 -12 150q20 65 113 65q83 0 93 -61q2 -15 2 -37q0 -119 -58 -338
q-9 -22 -15 -49l-1 -7q9 0 53.5 14.5t56.5 16.5q64 10 170 30q12 2 13 8q34 157 34 290q0 70 -10 135q11 36 50 58q34 18 76 18q73 0 79 -60q1 -15 1 -34q0 -124 -37 -302q-13 -60 -101 -342q-32 -103 -38 -118q-35 -75 -85 -75q-30 0 -50 24t-11 63z" />
    <glyph glyph-name="i" unicode="i" horiz-adv-x="418" 
d="M55 35q7 31 24 79q23 61 28 78q80 264 80 467q0 82 -13 157q9 33 45 51q30 15 69 15q84 0 93 -61q1 -11 1 -28q0 -105 -32 -257q-18 -83 -56 -195l-66 -190q-10 -34 -41 -121q-36 -71 -77 -71q-29 0 -45 24t-10 52z" />
    <glyph glyph-name="j" unicode="j" horiz-adv-x="855" 
d="M656 224q-146 -260 -327 -260q-96 0 -168 87q-46 58 -94 172q-32 79 -27 104q6 27 30 45t52 18q46 0 64 -48q28 -230 144 -230q94 0 176 127q65 100 88 212q10 47 13 115q2 28 4 57q0 19 -8 19q-17 0 -49.5 -10.5t-49.5 -10.5q-48 0 -48 45q0 8 2 17q9 45 64 88
q22 17 95 61l68 42q44 23 75 23q64 0 64 -122q0 -63 -18 -151q-46 -214 -150 -400z" />
    <glyph glyph-name="k" unicode="k" horiz-adv-x="806" 
d="M522 220q77 -95 77 -157q0 -70 -70 -70q-30 0 -52 33q-144 220 -215 220q-42 0 -78 -71q-22 -51 -67 -152q-42 -91 -88 -91q-24 0 -39.5 18t-15.5 42q0 7 2 14q13 64 56 191t57 193q30 140 30 264q0 69 -9 133q8 33 45 51q30 15 68 15q83 0 92 -61q1 -7 1 -18
q0 -40 -23 -177.5t-34 -162.5q-3 -7 -8 -11.5t-3 -4.5q11 0 45 28q223 184 399 469q19 15 43 15q40 0 74.5 -32.5t34.5 -72.5q0 -8 -2 -16q-7 -37 -148 -186q-124 -133 -183 -181q-41 -34 -80 -70q10 -53 91 -152z" />
    <glyph glyph-name="l" unicode="l" horiz-adv-x="752" 
d="M172 145q243 82 434 82q41 0 65 -19q21 -17 21 -42q0 -43 -53 -59q-29 -8 -87 -9q-186 -24 -456 -116q-22 -22 -45 -22q-25 0 -39.5 18t-14.5 42q0 23 22 85q16 43 32 87q82 264 82 475q0 78 -11 149q19 66 125 66q93 0 101 -62q2 -14 2 -33q0 -72 -28 -204
q-17 -79 -56 -184q-34 -90 -69 -180q-19 -52 -25 -74z" />
    <glyph glyph-name="m" unicode="m" horiz-adv-x="1030" 
d="M277 295q-14 -28 -30 -77q-21 -63 -28 -78q-21 -53 -37 -100q-22 -61 -32 -78q-26 -47 -63 -47q-25 0 -41.5 19t-16.5 44q0 21 21 89q14 46 29 92q75 254 75 447q0 86 -14 166q19 63 123 63q114 0 114 -97q0 -26 -10 -79q-9 -56 -10 -79q-2 -73 33 -217q38 -160 76 -160
q49 0 174 254q41 83 141 311q-11 83 -11 77q0 49 61 66q34 10 70 10q100 0 110 -59q3 -16 3 -41q0 -118 -36 -286q-15 -70 -107 -370q-19 -59 -37 -111q-34 -71 -77 -71q-25 0 -40.5 18.5t-15.5 43.5q0 20 16 70q19 63 22 75q8 37 16 126q2 28 9 54t7 27q-9 -9 -63 -99
q-85 -141 -124 -193q-82 -108 -136 -108q-72 0 -119 133q-17 55 -52 165z" />
    <glyph glyph-name="n" unicode="n" horiz-adv-x="912" 
d="M548 -24q-82 0 -151 99q-38 55 -85 170q-12 34 -29 78q-11 -31 -50 -136q-62 -169 -68 -182q-33 -70 -76 -70q-25 0 -41 18t-16 43q0 22 22 84q15 43 31 87q76 257 76 460q0 86 -13 164q16 64 127 64q61 0 86 -21t25 -64q0 -21 -5 -51q-7 -40 -7 -60q0 -13 18 -94
q90 -422 176 -422q43 0 73 140q28 132 28 293q0 139 -21 301q9 34 51 52q33 14 74 14q90 0 101 -61q2 -9 1 -58q-4 -206 -47 -407q-94 -441 -280 -441z" />
    <glyph glyph-name="o" unicode="o" horiz-adv-x="883" 
d="M690 246q-127 -178 -287 -265q-105 -57 -187 -57q-103 0 -153 73q-41 61 -41 163q0 56 12 114q38 178 162 349t282 258q106 58 187 58q104 0 154 -75q42 -62 42 -165q0 -55 -12 -111q-36 -171 -159 -342zM543 680q-136 -64 -243 -180.5t-157 -255.5q-15 -43 -15 -83
q0 -71 77 -71q99 0 221 85q110 77 198.5 194t108.5 214q7 31 7 53q0 76 -78 76q-53 0 -119 -32z" />
    <glyph glyph-name="p" unicode="p" horiz-adv-x="782" 
d="M563 382q-159 -165 -375 -268q-33 -101 -39 -114q-35 -73 -82 -73q-25 0 -38.5 18t-13.5 42t20 84q16 43 31 86q76 264 76 460q0 85 -14 161q20 69 124 69q16 0 29 -2q202 75 318 75q82 0 131.5 -43t49.5 -116q0 -154 -217 -379zM229 273q2 1 16 9q97 56 195 149
q126 120 126 196q0 58 -112 58q-121 0 -126.5 -27t-13.5 -84t-14 -85q-21 -101 -55 -208q-2 -6 -7 -16t-13 -10t-14 7.5t-4 15.5z" />
    <glyph glyph-name="q" unicode="q" horiz-adv-x="893" 
d="M711 262q-51 -66 -105 -138q-1 -4 29 -62q32 -61 32 -101q0 -36 -24 -59q-19 -19 -43 -19q-25 0 -48 37q-11 19 -32 68q-15 37 -21 37q-3 0 -45 -27q-133 -86 -230 -86q-105 0 -155 73q-42 61 -42 164q0 56 12 114q38 180 163 353t283 263q103 59 186 59q105 0 155 -73
q42 -61 42 -163q0 -58 -14 -120q-32 -154 -143 -320zM550 677q-138 -66 -255 -197q-126 -141 -156 -280q-6 -29 -6 -51q0 -72 78 -72q92 0 182 63q5 3 11 10q1 3 -64 77.5t-59 104.5q7 33 73 33q45 0 84 -14q81 -103 89 -103q5 0 24 19q156 157 189 314q7 30 7 52
q0 75 -78 75q-54 0 -119 -31z" />
    <glyph glyph-name="r" unicode="r" horiz-adv-x="789" 
d="M471 36q-64 39 -113 55q-126 40 -161 40q-4 0 -8 -12q-5 -15 -9 -30q-30 -82 -38 -100q-30 -64 -70 -64q-24 0 -41 17.5t-17 40.5q0 9 3 18q17 59 51 173q75 253 75 441q0 84 -13 162q9 36 48 56q33 16 75 16q14 0 26 -3q195 72 307 72q83 0 134 -39q54 -42 54 -115
q0 -22 -5 -46q-23 -107 -123 -236q-84 -108 -189 -191q-42 -30 -85 -64l13 -2q18 -2 35 -9q73 -32 103 -50q66 -42 66 -87q0 -28 -17.5 -47.5t-44.5 -19.5q-16 0 -56 24zM227 268q-3 2 -1 8q81 30 203 150q134 129 134 203q0 57 -99 57q-26 0 -74 -5q-58 -6 -60 -14
q-6 -30 -14 -91t-15 -92q-19 -90 -56 -209l-3 -11q-2 -5 -6 -5t-12 9q-12 -1 -15 0q-2 1 -2 4z" />
    <glyph glyph-name="s" unicode="s" horiz-adv-x="867" 
d="M554 68q-193 -141 -364 -141q-127 0 -182 79q-11 141 62 141q12 0 38 -20q37 -27 56 -37q39 -20 81 -20q98 0 229 77q145 85 145 176q0 44 -47 71q-40 23 -89 23q-41 0 -125 -14q-92 -15 -118 -29q-67 -36 -94 -36q-35 0 -58 31q-20 28 -21 65q0 26 14 92q43 202 196 308
q147 102 345 102h5q54 0 103 -51.5t49 -107.5q0 -105 -177 -116q-17 10 -27.5 28t-20.5 35q-147 -21 -206 -67q-79 -63 -88 -102q-1 -8 -3 -8q3 0 21 7q104 39 249 39q108 0 177 -32q91 -43 91 -133q0 -21 -4 -44q-37 -169 -237 -316z" />
    <glyph glyph-name="t" unicode="t" horiz-adv-x="771" 
d="M775 730q-21 -14 -61 -14q-7 0 -22 1h-23q-23 0 -84 -8q-66 -9 -76.5 -16t-16.5 -65q-8 -73 -24 -145q-17 -81 -53 -190q-31 -93 -63 -187q-8 -29 -34 -103q-30 -70 -77 -70q-25 0 -41 18.5t-16 42.5q0 22 22 94q16 50 32 99q75 249 75 409q0 29 -2 57q-1 16 -6 16
q-30 0 -94.5 -22t-96.5 -22q-35 0 -56 32q-20 29 -20 66q0 55 59 99q394 96 656 102q64 -39 64 -98q0 -29 -13 -58q-11 -25 -29 -38z" />
    <glyph glyph-name="u" unicode="u" horiz-adv-x="840" 
d="M515 135q-14 -11 -56 -40q-201 -141 -292 -141q-68 0 -97 62q-21 45 -21 137q0 162 67 480q20 94 40 129q37 63 112 63q68 0 79 -56q-41 -180 -95 -368q-17 -61 -29 -117q-16 -77 -16 -116q0 -61 40 -61q12 0 22 2q41 7 140 74q76 51 139 103q27 29 41 97q30 141 30 266
q0 93 -17 180q9 34 49 55q35 17 74 17q76 0 84 -54q2 -14 2 -37q0 -113 -30 -255q-16 -78 -53 -187q-31 -93 -62 -185q-10 -32 -38 -114q-35 -72 -79 -72q-24 0 -40.5 17.5t-16.5 41.5q0 15 9 39q7 19 14 39v1z" />
    <glyph glyph-name="v" unicode="v" horiz-adv-x="827" 
d="M145 2q-40 70 -76 319q-17 120 -17 217q0 90 15 161q10 46 51 85t87 39q64 0 64 -70q0 -30 -19 -103q-44 -165 -45 -278q-2 -112 44 -190l19 -32q7 0 38 28q175 159 313 660q63 70 121 70q90 0 90 -107q0 -23 -5 -48q-30 -140 -209 -400q-89 -127 -220 -283
q-51 -60 -73 -80q-50 -46 -93 -46q-24 0 -49.5 19t-35.5 39z" />
    <glyph glyph-name="w" unicode="w" horiz-adv-x="985" 
d="M236 209q9 11 81 109q80 108 114 162q-3 50 41 111q46 65 94 65q13 0 24 -3q25 -13 31 -44q5 -92 29 -224q17 -91 24 -119q12 -42 24 -45q-6 1 -3 10q18 54 39 155q33 155 33 285q0 87 -14 163q7 35 49 56q34 17 74 17q75 0 84 -55q2 -14 2 -37q0 -113 -30 -254
q-17 -78 -54 -190q-31 -93 -63 -187q-9 -30 -36 -109q-33 -70 -82 -70q-85 0 -170 202q-11 39 -41 106q-2 -3 -58 -69q-69 -80 -166 -173q-135 -128 -179 -128q-21 0 -36 17.5t-15 39.5q0 9 3 17l2 7q33 106 89 319q31 148 31 275q0 83 -13 157q9 36 48 55q33 16 74 16
q75 0 84 -55q4 -19 4 -46q0 -99 -44 -281q-35 -149 -74 -255z" />
    <glyph glyph-name="x" unicode="x" horiz-adv-x="871" 
d="M641 307q39 -89 53 -113q40 -50 40 -90q0 -8 -2 -17q-10 -47 -74 -47q-41 0 -65 33q-37 48 -70 107q-15 28 -57 97l-4 6q-2 0 -11 -7q-52 -45 -187 -162q-68 -59 -108 -99q-12 -14 -45 -49q-43 -40 -78 -40q-44 0 -44 61q0 12 2 22q9 43 191 222.5t185 195.5
q6 27 -103 128q-52 48 -133 86q-14 17 -14 37q0 43 57 83q53 38 98 38t106 -55q42 -37 93 -102q44 -55 46 -55l11 12q127 150 184 292q23 29 57 29q43 0 75 -35t32 -79q0 -11 -2 -20q-15 -74 -207 -295q-62 -73 -65 -84q-1 -7 39 -100z" />
    <glyph glyph-name="y" unicode="y" horiz-adv-x="805" 
d="M-9 -3q0 31 41 64q93 57 177 133q70 63 74 80q3 14 -5 28q-155 261 -155 372q0 11 2 20q8 38 44.5 74.5t74.5 36.5q48 0 68 -59q19 -110 31 -159q22 -92 52 -151q7 -12 8 -12q11 0 61 84q60 102 145 277q9 20 34 72q36 50 81 50q44 0 69 -37q20 -32 20 -78q0 -19 -3 -35
q-16 -75 -145 -248q-94 -127 -184 -226q-185 -204 -377 -322q-30 -18 -52 -18t-41.5 16t-19.5 38z" />
    <glyph glyph-name="z" unicode="z" horiz-adv-x="919" 
d="M254 93q6 0 20 2q119 18 196 21q72 4 124 13q1 0 8 1l24 6q20 5 38 5q29 0 54.5 -21.5t25.5 -47.5q0 -45 -82 -61q-155 -30 -302 -39q-108 -7 -200 -22q-102 -17 -111 -17q-73 0 -73 40q0 32 44 78q151 154 302 309q246 256 253 287q2 11 -13 13h-46q-67 0 -155 -27
q-13 -4 -148 -53q-28 -10 -48 -10q-65 0 -65 68q0 16 4 34q16 75 74 129q274 102 550 102q75 0 129 -20q75 -29 75 -91q0 -12 -2 -25q-12 -55 -49 -93q-98 -98 -304 -286t-305 -288q-14 -15 -15 -20q-6 0 -3 13z" />
    <glyph glyph-name="braceleft" unicode="{" horiz-adv-x="761" 
d="M711 627q-17 0 -235 67q-54 16 -124 58q-77 46 -102 84q-8 12 -8 29q0 40 36 83.5t69 43.5l16 -3q91 -150 301 -225q36 -10 71 -20q45 -18 47 -48q-4 -69 -71 -69zM573 379q-32 -10 -162 -24q-124 -14 -168 -14q-46 0 -105 8q-72 9 -99 24t-27 54q0 16 5 36q17 81 68 85
q122 -70 303 -70q75 0 144 11q37 6 52 6q22 0 36.5 -14.5t14.5 -35.5q0 -47 -62 -66zM617 136q-37 -31 -112 -73q-59 -32 -118 -65.5t-144 -66.5q-101 -41 -147 -41q-31 0 -51.5 29.5t-20.5 65.5q0 48 33 66q196 2 425 130q30 19 60 37q44 26 60 26q23 0 39 -18.5t11 -40.5
q-5 -23 -35 -49z" />
    <glyph glyph-name="bar" unicode="|" horiz-adv-x="384" 
d="M403 903q2 -3 5 -6l-3 -5q-3 -6 -32 -57q-139 -248 -214 -597q-9 -46 -22 -140.5t-23 -141.5q-8 -35 -36 -66q-31 -35 -65 -35q-48 0 -49 78q0 4 4 38q13 96 38 287q16 122 32 200q45 208 140 419q22 39 68.5 63.5t93.5 24.5q71 0 71 -49q0 -7 -2 -15z" />
    <glyph glyph-name="braceright" unicode="}" horiz-adv-x="765" 
d="M125 736q327 85 500 253q10 3 17 3q29 0 46 -34q15 -29 15 -65q0 -38 -24 -60q-38 -37 -133 -81q-84 -40 -150 -58q-50 -14 -175 -48q-72 -19 -85 -19q-56 0 -56 42q0 49 45 67zM319 355q-128 16 -152 24q-46 17 -46 52q0 24 21 44t49 20q18 0 48 -5q38 -6 49 -7
q46 -5 92 -5q181 0 332 70q44 -3 44 -57q0 -67 -35 -103q-10 -10 -24 -16q-33 -14 -106 -23q-62 -8 -110 -8q-40 0 -162 14zM548 3q-8 -37 -40 -73q-36 -40 -71 -40q-45 0 -129 40q-74 34 -120 70q-33 27 -121 96q-14 11 -50 42q-18 22 -18 44q0 26 27 46q21 16 40 16
q17 0 50 -26l48 -38q174 -127 366 -129q24 -17 18 -48z" />
    <glyph glyph-name="dieresis" unicode="&#xa8;" 
 />
    <glyph glyph-name="copyright" unicode="&#xa9;" horiz-adv-x="1166" 
d="M378 -126q-195 0 -292 140q-63 92 -63 213q0 56 13 117q53 245 266 430q218 188 465 188q197 0 293 -141q64 -94 64 -216q0 -56 -13 -117q-52 -244 -267 -428q-219 -186 -466 -186zM919 658q-75 76 -205 76q-84 0 -177.5 -33t-162.5 -86t-103 -89q-39 -41 -80 -110
q-54 -92 -54 -182q0 -100 66 -163q71 -67 198 -67q187 0 357 132q174 135 212 315q7 33 7 62q0 85 -58 145zM274 105q-25 27 -25 67q0 16 3 33q13 61 109 193q78 106 170 200q137 140 208 140q36 0 36 -56q0 -9 -7 -68l-8 -66q-7 -35 -24 -62q-24 -39 -57 -39q-27 0 -37 44
q-2 6 -1 12t-1 6q-1 0 -4 -2q-75 -43 -151 -118q-92 -90 -106 -154q-2 -11 -2 -20q0 -36 53 -36q51 0 122 33q32 14 113 61q58 33 75 33q43 0 43 -41q0 -43 -44 -68q-75 -42 -181 -80q-123 -44 -189 -44q-62 0 -95 32z" />
    <glyph glyph-name="registered" unicode="&#xae;" horiz-adv-x="1164" 
d="M378 -126q-196 0 -292 140q-62 93 -62 214q0 56 13 118q52 245 265 428q217 188 464 188q196 0 293 -141q63 -94 63 -216q0 -55 -12 -116q-53 -246 -266 -429q-218 -186 -466 -186zM920 656q-75 78 -205 78q-178 0 -353 -129q-181 -132 -218 -307q-8 -38 -8 -71
q0 -146 161 -206q45 -17 92 -17q218 0 399 159q150 131 182 285q7 33 7 63q0 84 -57 145zM570 248l53 -27q83 -41 74 -86q-9 -40 -46 -40q-18 0 -57 23q-45 26 -54 29q-78 25 -102 25q-3 0 -7 -15q-7 -27 -11 -40q-27 -78 -65 -78q-18 0 -30.5 13t-12.5 31q0 10 34 125
q49 164 49 284q0 57 -10 108q15 52 87 52q10 0 18 -1q127 46 201 46q56 0 92 -28t36 -78q0 -15 -4 -31q-29 -140 -212 -288q-12 -8 -33 -24zM479 291q52 31 114 93q75 75 75 118q0 32 -59 32q-48 0 -79 -11q-4 -20 -10.5 -60.5t-10.5 -60.5z" />
    <glyph glyph-name="Ograve" unicode="&#xd2;" 
 />
    <glyph glyph-name="Oacute" unicode="&#xd3;" 
 />
    <glyph glyph-name="Ocircumflex" unicode="&#xd4;" 
 />
    <glyph glyph-name="Otilde" unicode="&#xd5;" 
 />
    <glyph glyph-name="quoteleft" unicode="&#x2018;" horiz-adv-x="285" 
d="M245 525q-19 -18 -43 -18q-51 0 -74 89l-22 130q-21 108 -27 185q35 55 96 55q65 0 61 -61q-3 -68 9 -159q1 -8 25 -159q2 -38 -25 -62z" />
    <glyph glyph-name="quoteright" unicode="&#x2019;" horiz-adv-x="312" 
d="M159 608q-7 -14 -31 -49q-37 -52 -79 -52q-50 0 -50 52q0 19 9 35q46 78 91 156q51 91 78 163q12 30 28.5 41.5t48.5 11.5q66 0 80 -62q-16 -32 -175 -296z" />
    <glyph glyph-name="quotedblleft" unicode="&#x201c;" horiz-adv-x="497" 
d="M457 525q-19 -18 -44 -18q-50 0 -74 90q-11 64 -23 129q-18 88 -25 185q34 55 96 55q64 0 61 -61q-4 -68 9 -159q1 -8 25 -159q2 -38 -25 -62zM240 525q-19 -18 -43 -18q-51 0 -74 89l-22 130q-21 108 -27 185q35 55 96 55q65 0 61 -61q-3 -68 9 -159q1 -8 25 -159
q2 -38 -25 -62z" />
    <glyph glyph-name="quotedblright" unicode="&#x201d;" horiz-adv-x="511" 
d="M441 720q-26 -46 -101 -161q-36 -53 -78 -53q-23 0 -36.5 16t-13.5 38q0 18 9 34q45 78 91 156q50 91 77 163q20 53 77 53q65 0 81 -62q-29 -56 -106 -184zM155 608q-29 -49 -43 -65q-31 -36 -66 -36q-24 0 -37.5 16t-13.5 38q0 18 9 33q46 78 91 156q52 91 78 163
q20 53 77 53q66 0 80 -62q-16 -32 -175 -296z" />
    <glyph glyph-name="ellipsis" unicode="&#x2026;" horiz-adv-x="1227" 
d="M847 74q10 48 63 86q50 37 100 37q36 0 58.5 -21t22.5 -54q0 -54 -54.5 -97.5t-109.5 -43.5q-41 0 -65 26.5t-15 66.5zM473 71q10 48 62 85.5t102 37.5q35 0 57.5 -21t22.5 -54q0 -54 -56 -99q-52 -43 -108 -43q-41 0 -64.5 26.5t-15.5 67.5zM100 68q10 47 61.5 84.5
t101.5 37.5q36 0 58.5 -20.5t22.5 -53.5q0 -55 -54.5 -98.5t-110.5 -43.5q-40 0 -64 26.5t-15 67.5z" />
    <glyph glyph-name="glyph95" 
 />
    <glyph glyph-name="glyph108" 
 />
    <glyph glyph-name="glyph109" 
 />
    <glyph glyph-name="glyph95" 
 />
    <glyph glyph-name="glyph108" 
 />
    </font>
</defs>
</svg>
